# xmcd
#
# Track frame offsets: 
#        150
#        9816
#        21520
#        34244
#        45135
#        61092
#        66880
#        96807
#        108466
#        121996
#        135143
#        146672
#        158683
#        169518
#        182309
#        193825
#        205499
#
# Disc length: 2950 seconds
#
# Revision: 0
# Processed by: cddbd v1.5.2PL0 Copyright (c) Steve Scherf et al.
# Submitted via: ExactAudioCopy v0.95a5
#
DISCID=d70b8411
DTITLE=Charley Pride - Best of Charley Pride
DYEAR=1900
DGENRE=Ballad
TTITLE0=Kiss an Angel Good Morning
TTITLE1=My Eyes Can Only See as Far as You
TTITLE2=Help me Make it Through the Night
TTITLE3=Mississippi Cotton Picking Delta Town
TTITLE4=Let me Live in the Light of His Love
TTITLE5=Lovesick Blues
TTITLE6=Medley
TTITLE7=Louisana Man
TTITLE8=I'm so Afraid of Losing You
TTITLE9=Kaw-Liga
TTITLE10=It's Going to Take a Little Bit Longer
TTITLE11=There Goes My Everything
TTITLE12=Oklahoma Morning
TTITLE13=Crystal Chandaliers
TTITLE14=Happiness of Having You
TTITLE15=Shutters and Boards
TTITLE16=Me and Bobby McGee
EXTD=
EXTT0=
EXTT1=
EXTT2=
EXTT3=
EXTT4=
EXTT5=
EXTT6=
EXTT7=
EXTT8=
EXTT9=
EXTT10=
EXTT11=
EXTT12=
EXTT13=
EXTT14=
EXTT15=
EXTT16=
PLAYORDER=
